<svg width="3559" height="1002" viewBox="0 0 3559 1002" fill="none" xmlns="http://www.w3.org/2000/svg">
<path fill-rule="evenodd" clip-rule="evenodd" d="M500.073 0.904297C223.93 0.904297 0.072998 224.912 0.072998 501.24C0.072998 534.325 3.31513 566.65 9.43915 597.941C13.1643 324.885 231.379 104.694 500.073 104.694C768.767 104.694 986.983 324.886 990.707 597.941C996.831 566.65 1000.07 534.325 1000.07 501.24C1000.07 224.912 776.216 0.904297 500.073 0.904297Z" fill="#FFD243"/>
<path fill-rule="evenodd" clip-rule="evenodd" d="M497.867 1001.1C276.775 1001.1 90.104 859.688 25.231 660.892C27.7869 661.764 42.7964 648.634 69.8129 683C205.512 855.602 354.682 946.336 572.337 857.499C595.56 830.959 277.786 837.356 328.024 690.438C483.237 780.721 588.925 723.85 627.313 717.215C733.421 711.308 785.133 847.073 974.916 646.756C913.734 851.664 723.326 1001.1 497.867 1001.1L497.867 1001.1Z" fill="#2373C8"/>
<path fill-rule="evenodd" clip-rule="evenodd" d="M482.297 636.534L482.291 636.447L482.37 636.409L482.285 636.359C474.888 489.598 315.504 456.783 206.456 476.67L206.306 476.583L206.345 476.689L206.233 476.709L206.383 476.797C243.435 581.267 351.255 703.147 482.213 636.486L482.297 636.534Z" fill="#98CA45"/>
<path fill-rule="evenodd" clip-rule="evenodd" d="M517.847 636.534L517.853 636.447L517.775 636.409L517.859 636.359C525.257 489.598 684.641 456.783 793.689 476.67L793.839 476.583L793.8 476.689L793.912 476.709L793.762 476.797C756.71 581.267 648.89 703.147 517.932 636.486L517.847 636.534Z" fill="#98CA45"/>
<path fill-rule="evenodd" clip-rule="evenodd" d="M503.416 243.335H503.417C515.449 236.767 523.95 220.722 523.95 201.968C523.95 183.214 515.449 163.554 503.417 155.266V155.265H503.416V155.266C491.384 163.554 482.884 183.214 482.884 201.968C482.884 220.722 491.384 236.767 503.416 243.335Z" fill="#FFD243"/>
<path fill-rule="evenodd" clip-rule="evenodd" d="M547.761 482.394L547.762 482.395H547.763C564.989 489.576 589.384 484.995 609.487 469.12C629.589 453.244 643.469 427.599 642.168 407.843V407.842H642.167C623.098 402.117 594.826 409.76 574.723 425.635C554.621 441.51 544.617 464.094 547.762 482.394H547.761Z" fill="#FFD243"/>
<path fill-rule="evenodd" clip-rule="evenodd" d="M549.137 409.471L549.138 409.472C565.802 415.171 588.481 409.356 606.416 393.173C624.35 376.991 635.817 351.994 633.36 333.476H633.361L633.36 333.475H633.359C615.051 329.26 588.913 338.196 570.979 354.379C553.045 370.562 545.036 392.437 549.138 409.471H549.137Z" fill="#FFD243"/>
<path fill-rule="evenodd" clip-rule="evenodd" d="M533.821 349.457H533.822H533.823C548.789 353.005 568 346.04 582.204 330.467C596.408 314.893 604.239 292.207 600.525 276.322V276.321H600.524C584.255 274.202 562.305 284.169 548.102 299.743C533.898 315.316 528.805 335 533.822 349.456L533.821 349.457Z" fill="#FFD243"/>
<path fill-rule="evenodd" clip-rule="evenodd" d="M514.64 288.991H514.641C526.913 291.947 542.699 286.289 554.403 273.549C566.105 260.811 572.601 242.215 569.6 229.168V229.167L569.599 229.168C556.255 227.38 538.21 235.495 526.508 248.235C514.804 260.973 510.566 277.113 514.64 288.991Z" fill="#FFD243"/>
<path fill-rule="evenodd" clip-rule="evenodd" d="M452.385 482.394L452.384 482.395H452.383C435.157 489.576 410.762 484.995 390.659 469.12C370.557 453.244 356.677 427.599 357.978 407.843V407.842C377.048 402.117 405.32 409.76 425.423 425.635C445.525 441.51 455.529 464.094 452.384 482.394H452.385Z" fill="#FFD243"/>
<path fill-rule="evenodd" clip-rule="evenodd" d="M451.009 409.471L451.008 409.472H451.007C434.344 415.171 411.664 409.356 393.73 393.173C375.796 376.991 364.329 351.994 366.786 333.476H366.785L366.786 333.475H366.787C385.095 329.26 411.233 338.196 429.167 354.379C447.101 370.562 455.11 392.437 451.008 409.471H451.009Z" fill="#FFD243"/>
<path fill-rule="evenodd" clip-rule="evenodd" d="M466.324 349.457H466.323C451.357 353.005 432.145 346.04 417.942 330.467C403.739 314.893 395.907 292.207 399.621 276.322V276.321H399.622C415.891 274.202 437.842 284.169 452.044 299.743C466.248 315.316 471.341 335 466.324 349.456V349.457Z" fill="#FFD243"/>
<path fill-rule="evenodd" clip-rule="evenodd" d="M485.507 288.991H485.506C473.234 291.947 457.448 286.289 445.744 273.549C434.042 260.811 427.546 242.215 430.547 229.168V229.167L430.548 229.168C443.892 227.38 461.937 235.495 473.639 248.235C485.343 260.973 489.581 277.113 485.507 288.991Z" fill="#FFD243"/>
<path d="M1176.29 839.846V828.857H1184.07V785.748H1176.29V774.759H1200.67L1222.13 815.378V785.748H1214.56V774.759H1240.66V785.748H1232.51V840.309H1219.53L1194.45 792.073V828.857H1201.76V839.846H1176.29Z" fill="white"/>
<path d="M1300.42 828.857V839.846H1271.81V828.857H1279.26L1276.51 817.66H1261.4L1258.3 828.857H1266.08V839.846H1240.32V828.857H1247.51L1258.85 785.748H1251.11V774.759H1289.08V785.748H1281.28L1293.48 828.857H1300.42ZM1274.12 808.125L1269.27 788.512L1264.03 808.125H1274.12Z" fill="white"/>
<path d="M1310.41 839.846V828.857H1319.15V785.748H1310.41V800.907H1300.42V774.759H1353.16V800.907H1343.29V785.748H1334.3V828.857H1343.04V839.846H1310.41Z" fill="white"/>
<path d="M1357.64 839.846V828.857H1366.46V785.748H1357.64V774.759H1390.52V785.748H1381.61V828.857H1390.52V839.846H1357.64Z" fill="white"/>
<path d="M1428.88 773.721C1438.92 773.721 1446.81 776.963 1452.56 783.464C1458.33 789.949 1461.2 797.856 1461.2 807.183C1461.2 816.543 1458.32 824.465 1452.55 830.934C1446.77 837.402 1438.89 840.645 1428.88 840.645C1418.47 840.645 1410.48 837.307 1404.91 830.647C1399.33 823.985 1396.54 816.176 1396.54 807.183C1396.54 797.888 1399.41 789.981 1405.14 783.48C1410.86 776.98 1418.79 773.721 1428.88 773.721ZM1428.88 785.604C1424.41 785.604 1420.63 787.489 1417.52 791.226C1414.4 794.964 1412.85 800.459 1412.85 807.694C1412.85 814.099 1414.39 819.21 1417.46 823.044C1420.53 826.877 1424.33 828.809 1428.88 828.809C1433.33 828.809 1437.13 826.925 1440.24 823.171C1443.37 819.401 1444.94 813.987 1444.94 806.896C1444.94 800.571 1443.44 795.444 1440.46 791.514C1437.47 787.585 1433.62 785.604 1428.88 785.604Z" fill="white"/>
<path d="M1467.77 839.846V828.857H1475.55V785.748H1467.77V774.759H1492.15L1513.61 815.378V785.748H1506.05V774.759H1532.14V785.748H1523.99V840.309H1511.01L1485.93 792.073V828.857H1493.24V839.846H1467.77Z" fill="white"/>
<path d="M1591.9 828.857V839.846H1563.29V828.857H1570.74L1567.99 817.66H1552.88L1549.78 828.857H1557.56V839.846H1531.8V828.857H1538.99L1550.33 785.748H1542.59V774.759H1580.56V785.748H1572.76L1584.96 828.857H1591.9ZM1565.6 808.125L1560.75 788.512L1555.51 808.125H1565.6Z" fill="white"/>
<path d="M1594.2 839.846V828.857H1602.53V785.748H1594.2V774.759H1626.15V785.748H1617.67V828.857H1634.86V808.733H1646.2V839.846H1594.2Z" fill="white"/>
<path d="M1720.89 774.759H1730.73V797.68H1720.89C1718.11 789.453 1713.27 785.332 1706.37 785.332C1700.69 785.332 1696.39 787.506 1693.48 791.833C1690.57 796.178 1689.1 801.369 1689.1 807.423C1689.1 813.747 1690.64 818.875 1693.72 822.788C1696.81 826.701 1700.73 828.666 1705.5 828.666C1709.4 828.666 1712.82 827.18 1715.75 824.21C1718.68 821.254 1720.65 817.134 1721.69 811.862L1733.14 817.996C1728.8 833.09 1719.22 840.645 1704.42 840.645C1693.95 840.645 1686.07 837.498 1680.76 831.189C1675.45 824.881 1672.79 816.91 1672.79 807.279C1672.79 800.41 1674.18 794.406 1676.93 789.262C1679.69 784.12 1683.41 780.238 1688.08 777.634C1692.75 775.031 1697.88 773.721 1703.45 773.721C1710.4 773.721 1716.21 775.75 1720.89 779.806V774.759Z" fill="white"/>
<path d="M1772.02 773.721C1782.06 773.721 1789.95 776.963 1795.7 783.464C1801.47 789.949 1804.34 797.856 1804.34 807.183C1804.34 816.543 1801.46 824.465 1795.69 830.934C1789.91 837.402 1782.03 840.645 1772.02 840.645C1761.61 840.645 1753.62 837.307 1748.05 830.647C1742.47 823.985 1739.68 816.176 1739.68 807.183C1739.68 797.888 1742.55 789.981 1748.28 783.48C1754 776.98 1761.93 773.721 1772.02 773.721ZM1772.02 785.604C1767.55 785.604 1763.77 787.489 1760.66 791.226C1757.54 794.964 1755.99 800.459 1755.99 807.694C1755.99 814.099 1757.53 819.21 1760.6 823.044C1763.67 826.877 1767.47 828.809 1772.02 828.809C1776.47 828.809 1780.27 826.925 1783.38 823.171C1786.51 819.401 1788.08 813.987 1788.08 806.896C1788.08 800.571 1786.58 795.444 1783.6 791.514C1780.61 787.585 1776.76 785.604 1772.02 785.604Z" fill="white"/>
<path d="M1810.9 839.846V828.857H1818.69V785.748H1810.9V774.759H1835.29L1856.75 815.378V785.748H1849.18V774.759H1875.28V785.748H1867.13V840.309H1854.15L1829.07 792.073V828.857H1836.38V839.846H1810.9Z" fill="white"/>
<path d="M1878.87 839.846V828.857H1887.2V785.748H1878.87V774.759H1930.94V794.837H1919.82V785.748H1902.33V800.826H1914.92V811.815H1902.33V828.857H1911.28V839.846H1878.87Z" fill="white"/>
<path d="M1934.63 839.846V828.857H1941.61V785.748H1934.63V774.759H1985.91V795.396H1974.79V785.748H1956.75V800.778H1971.32V811.767H1956.75V828.857H1974.79V819.115H1985.91V839.846H1934.63Z" fill="white"/>
<path d="M2051.54 828.857V839.846H2033.81L2020.67 811.352H2014.02V828.857H2021.3V839.846H1990.89V828.857H1998.87V785.748H1990.89V774.759H2025.98C2032.59 774.759 2037.35 776.612 2040.26 780.349C2043.17 784.071 2044.63 788.287 2044.63 793C2044.63 800.395 2041.27 805.794 2034.55 809.195L2044 828.857L2051.54 828.857ZM2014.02 800.953H2019.2C2025.61 800.953 2028.83 798.397 2028.83 793.287C2028.83 790.763 2028.1 788.879 2026.63 787.616C2025.17 786.37 2023.14 785.748 2020.59 785.748H2014.02V800.953Z" fill="white"/>
<path d="M2054.2 839.846V828.857H2061.19V785.748H2054.2V774.759H2105.48V795.396H2094.36V785.748H2076.33V800.778H2090.9V811.767H2076.33V828.857H2094.36V819.115H2105.48V839.846H2054.2Z" fill="white"/>
<path d="M2110.8 839.846V828.857H2118.58V785.748H2110.8V774.759H2135.18L2156.64 815.378V785.748H2149.07V774.759H2175.17V785.748H2167.02V840.309H2154.04L2128.96 792.073V828.857H2136.27V839.846H2110.8Z" fill="white"/>
<path d="M2228.66 774.759H2238.5V797.68H2228.66C2225.88 789.453 2221.04 785.332 2214.14 785.332C2208.46 785.332 2204.16 787.506 2201.25 791.833C2198.34 796.178 2196.87 801.369 2196.87 807.423C2196.87 813.747 2198.41 818.875 2201.49 822.788C2204.58 826.701 2208.5 828.666 2213.27 828.666C2217.17 828.666 2220.59 827.18 2223.52 824.21C2226.45 821.254 2228.42 817.134 2229.46 811.862L2240.91 817.996C2236.57 833.09 2226.99 840.645 2212.19 840.645C2201.72 840.645 2193.84 837.498 2188.53 831.189C2183.22 824.881 2180.56 816.91 2180.56 807.279C2180.56 800.41 2181.95 794.406 2184.7 789.262C2187.46 784.12 2191.18 780.238 2195.85 777.634C2200.52 775.031 2205.65 773.721 2211.22 773.721C2218.17 773.721 2223.98 775.75 2228.66 779.806V774.759Z" fill="white"/>
<path d="M2246.07 839.846V828.857H2253.05V785.748H2246.07V774.759H2297.35V795.396H2286.23V785.748H2268.19V800.778H2282.76V811.767H2268.19V828.857H2286.23V819.115H2297.35V839.846H2246.07Z" fill="white"/>
<path d="M2324.2 839.846V828.857H2332.52V785.748H2324.2V774.759H2376.27V794.837H2365.14V785.748H2347.66V800.826H2360.25V811.815H2347.66V828.857H2356.61V839.846H2324.2Z" fill="white"/>
<path d="M2413.67 773.721C2423.71 773.721 2431.6 776.963 2437.35 783.464C2443.12 789.949 2445.99 797.856 2445.99 807.183C2445.99 816.543 2443.11 824.465 2437.34 830.934C2431.56 837.402 2423.68 840.645 2413.67 840.645C2403.26 840.645 2395.27 837.307 2389.7 830.647C2384.12 823.985 2381.33 816.176 2381.33 807.183C2381.33 797.888 2384.2 789.981 2389.93 783.48C2395.65 776.98 2403.58 773.721 2413.67 773.721ZM2413.67 785.604C2409.2 785.604 2405.42 787.489 2402.31 791.226C2399.19 794.964 2397.64 800.459 2397.64 807.694C2397.64 814.099 2399.18 819.21 2402.25 823.044C2405.32 826.877 2409.12 828.809 2413.67 828.809C2418.12 828.809 2421.92 826.925 2425.03 823.171C2428.16 819.401 2429.73 813.987 2429.73 806.896C2429.73 800.571 2428.23 795.444 2425.25 791.514C2422.26 787.585 2418.41 785.604 2413.67 785.604Z" fill="white"/>
<path d="M2512.88 828.857V839.846H2495.15L2482.01 811.352H2475.36V828.857H2482.64V839.846H2452.23V828.857H2460.21V785.748H2452.23V774.759H2487.32C2493.93 774.759 2498.69 776.612 2501.6 780.349C2504.51 784.071 2505.97 788.287 2505.97 793C2505.97 800.395 2502.61 805.794 2495.89 809.195L2505.34 828.857L2512.88 828.857ZM2475.36 800.953H2480.54C2486.95 800.953 2490.17 798.397 2490.17 793.287C2490.17 790.763 2489.44 788.879 2487.97 787.616C2486.51 786.37 2484.48 785.748 2481.93 785.748H2475.36V800.953Z" fill="white"/>
<path d="M2586.44 774.759H2596.28V797.68H2586.44C2583.66 789.453 2578.82 785.332 2571.92 785.332C2566.24 785.332 2561.94 787.506 2559.03 791.833C2556.12 796.178 2554.65 801.369 2554.65 807.423C2554.65 813.747 2556.19 818.875 2559.27 822.788C2562.36 826.701 2566.28 828.666 2571.05 828.666C2574.95 828.666 2578.37 827.18 2581.3 824.21C2584.23 821.254 2586.2 817.134 2587.24 811.862L2598.69 817.996C2594.35 833.09 2584.77 840.645 2569.97 840.645C2559.5 840.645 2551.62 837.498 2546.31 831.189C2541 824.881 2538.34 816.91 2538.34 807.279C2538.34 800.41 2539.73 794.406 2542.48 789.262C2545.24 784.12 2548.96 780.238 2553.63 777.634C2558.3 775.031 2563.43 773.721 2569 773.721C2575.95 773.721 2581.76 775.75 2586.44 779.806V774.759Z" fill="white"/>
<path d="M2637.57 773.721C2647.61 773.721 2655.5 776.963 2661.25 783.464C2667.02 789.949 2669.89 797.856 2669.89 807.183C2669.89 816.543 2667.01 824.465 2661.24 830.934C2655.46 837.402 2647.58 840.645 2637.57 840.645C2627.16 840.645 2619.17 837.307 2613.6 830.647C2608.02 823.985 2605.23 816.176 2605.23 807.183C2605.23 797.888 2608.1 789.981 2613.83 783.48C2619.55 776.98 2627.48 773.721 2637.57 773.721ZM2637.57 785.604C2633.1 785.604 2629.32 787.489 2626.21 791.226C2623.09 794.964 2621.54 800.459 2621.54 807.694C2621.54 814.099 2623.08 819.21 2626.15 823.044C2629.22 826.877 2633.02 828.809 2637.57 828.809C2642.02 828.809 2645.82 826.925 2648.93 823.171C2652.06 819.401 2653.63 813.987 2653.63 806.896C2653.63 800.571 2652.13 795.444 2649.15 791.514C2646.16 787.585 2642.31 785.604 2637.57 785.604Z" fill="white"/>
<path d="M2676.5 839.846V828.857H2684.03V785.748H2676.5V774.759H2705.65L2718.46 812.933L2731.29 774.759H2761.03V785.748H2753.51V828.857H2761.03V839.846H2731.75V828.857H2738.78V785.748H2737.41L2719.37 839.846H2713.11L2694.86 785.748H2693.49V828.857H2701.1V839.846H2676.5Z" fill="white"/>
<path d="M2765.76 839.846V828.857H2773.28V785.748H2765.76V774.759H2794.91L2807.72 812.933L2820.55 774.759H2850.29V785.748H2842.76V828.857H2850.29V839.846H2821.01V828.857H2828.03V785.748H2826.66L2808.63 839.846H2802.36L2784.12 785.748H2782.75V828.857H2790.36V839.846H2765.76Z" fill="white"/>
<path d="M2854.22 785.748V774.759H2882V785.748H2876.26V815.185C2876.26 819.114 2876.42 821.942 2876.7 823.683C2877 825.407 2877.78 826.844 2879.03 827.963C2880.29 829.08 2881.87 829.64 2883.8 829.64C2885.77 829.64 2887.43 829.112 2888.73 828.059C2890.04 826.989 2890.88 825.662 2891.27 824.082C2891.64 822.484 2891.82 819.242 2891.82 814.339V785.748H2886.19V774.759H2909.35V785.748H2902.24V818.316C2902.24 822.755 2902.03 825.966 2901.62 827.978C2901.19 829.991 2900.23 831.988 2898.73 833.968C2897.22 835.948 2895.04 837.562 2892.18 838.791C2889.33 840.022 2886.04 840.644 2882.33 840.644C2878.03 840.644 2874.38 839.958 2871.35 838.6C2868.32 837.243 2866.07 835.453 2864.6 833.201C2863.11 830.95 2862.17 828.729 2861.76 826.509C2861.33 824.288 2861.13 820.52 2861.13 815.185V785.748L2854.22 785.748Z" fill="white"/>
<path d="M2912.95 839.846V828.857H2920.73V785.748H2912.95V774.759H2937.33L2958.79 815.378V785.748H2951.22V774.759H2977.32V785.748H2969.17V840.309H2956.19L2931.11 792.073V828.857H2938.42V839.846H2912.95Z" fill="white"/>
<path d="M2980.38 839.846V828.857H2989.2V785.748H2980.38V774.759H3013.25V785.748H3004.35V828.857H3013.25V839.846H2980.38Z" fill="white"/>
<path d="M3027.69 839.846V828.857H3036.43V785.748H3027.69V800.907H3017.7V774.759H3070.43V800.907H3060.57V785.748H3051.57V828.857H3060.31V839.846H3027.69Z" fill="white"/>
<path d="M3087.55 839.846V828.857H3095.7V811.257L3079.93 785.748H3072.82V774.759H3101.93V785.748H3096.2L3104.74 801.657L3113.39 785.748H3107.41V774.759H3133.05V785.748H3125.9L3110.83 811.257V828.857H3118.96V839.846H3087.55Z" fill="white"/>
<path d="M3158.31 839.846V817.66H3168.19C3168.29 821.717 3169.24 824.704 3171.03 826.621C3172.81 828.538 3174.84 829.513 3177.14 829.513C3178.92 829.513 3180.42 828.809 3181.65 827.42C3182.88 826.03 3183.49 824.401 3183.49 822.532C3183.49 820.535 3182.89 818.859 3181.69 817.501C3180.49 816.144 3178.31 814.594 3175.13 812.853C3168.4 809.195 3163.83 805.985 3161.42 803.206C3159.02 800.427 3157.81 796.689 3157.81 791.977C3157.81 786.291 3159.39 781.899 3162.58 778.784C3165.76 775.653 3169.37 774.105 3173.41 774.105C3178.04 774.105 3181.62 776.117 3184.16 780.141V774.759H3193.99V794.548H3184.16C3183.85 791.498 3182.91 789.134 3181.34 787.457C3179.77 785.797 3177.92 784.95 3175.84 784.95C3174.21 784.95 3172.86 785.445 3171.74 786.402C3170.62 787.377 3170.06 788.639 3170.06 790.204C3170.06 791.546 3170.53 792.808 3171.44 794.006C3172.37 795.219 3175.05 796.913 3179.52 799.132C3183.81 801.289 3187.11 803.238 3189.4 804.962C3191.72 806.688 3193.53 808.94 3194.87 811.703C3196.2 814.467 3196.87 817.645 3196.87 821.271C3196.87 827.691 3195.2 832.53 3191.86 835.774C3188.5 839.016 3184.55 840.645 3179.98 840.645C3174.87 840.645 3170.94 838.536 3168.19 834.32V839.846L3158.31 839.846Z" fill="white"/>
<path d="M3202.56 839.846V828.857H3209.54V785.748H3202.56V774.759H3253.84V795.396H3242.72V785.748H3224.69V800.778H3239.25V811.767H3224.69V828.857H3242.72V819.115H3253.84V839.846H3202.56Z" fill="white"/>
<path d="M3319.47 828.857V839.846H3301.74L3288.6 811.352H3281.95V828.857H3289.23V839.846H3258.82V828.857H3266.8V785.748H3258.82V774.759H3293.91C3300.52 774.759 3305.28 776.612 3308.19 780.349C3311.1 784.071 3312.56 788.287 3312.56 793C3312.56 800.395 3309.2 805.794 3302.48 809.195L3311.93 828.857L3319.47 828.857ZM3281.95 800.953H3287.13C3293.54 800.953 3296.76 798.397 3296.76 793.287C3296.76 790.763 3296.03 788.879 3294.56 787.616C3293.1 786.37 3291.07 785.748 3288.52 785.748H3281.95V800.953Z" fill="white"/>
<path d="M3340 840.262L3322.7 785.748H3315.74V774.759H3345.44V785.748H3337.91L3347.71 818.363L3357.53 785.748H3350.12V774.759H3375.85V785.748H3368.78L3352.09 840.262H3340Z" fill="white"/>
<path d="M3377.56 839.846V828.857H3386.38V785.748H3377.56V774.759H3410.44V785.748H3401.53V828.857H3410.44V839.846H3377.56Z" fill="white"/>
<path d="M3464.56 774.759H3474.4V797.68H3464.56C3461.78 789.453 3456.94 785.332 3450.04 785.332C3444.36 785.332 3440.06 787.506 3437.15 791.833C3434.24 796.178 3432.77 801.369 3432.77 807.423C3432.77 813.747 3434.31 818.875 3437.39 822.788C3440.48 826.701 3444.4 828.666 3449.17 828.666C3453.07 828.666 3456.49 827.18 3459.42 824.21C3462.35 821.254 3464.32 817.134 3465.36 811.862L3476.81 817.996C3472.47 833.09 3462.89 840.645 3448.09 840.645C3437.62 840.645 3429.74 837.498 3424.43 831.189C3419.12 824.881 3416.46 816.91 3416.46 807.279C3416.46 800.41 3417.85 794.406 3420.6 789.262C3423.36 784.12 3427.09 780.238 3431.75 777.634C3436.42 775.031 3441.55 773.721 3447.12 773.721C3454.07 773.721 3459.88 775.75 3464.56 779.806V774.759Z" fill="white"/>
<path d="M3481.97 839.846V828.857H3488.95V785.748H3481.97V774.759H3533.25V795.396H3522.13V785.748H3504.09V800.778H3518.66V811.767H3504.09V828.857H3522.13V819.115H3533.25V839.846H3481.97Z" fill="white"/>
<path d="M1570.06 665.627L1215.53 363.386H1255.82L1542.81 607.741V466.113C1542.81 442.47 1541.17 424.3 1538.03 411.488C1534.89 399.492 1528.36 389.359 1518.58 381.206C1508.8 373.17 1496.33 367.929 1481.08 365.483V359.309C1481.31 359.309 1485.27 359.659 1492.96 360.358C1522.77 362.338 1543.04 363.387 1553.75 363.387C1563.54 363.387 1586.83 361.988 1623.64 359.309V365.483C1611.76 367.113 1601.51 372.005 1592.54 380.158C1583.92 387.845 1577.98 397.395 1574.83 408.809C1571.69 420.456 1570.06 436.646 1570.06 457.61L1570.06 665.627ZM1176.97 363.386L1570.06 699.17V727.122H1563.31L1254.08 464.016V622.649C1254.08 657.24 1258.5 681.233 1267.35 694.628C1276.21 708.138 1290.3 716.874 1309.4 720.95V727.122C1275.04 724.444 1251.75 723.046 1239.4 723.046C1225.54 723.046 1204.69 724.444 1176.62 727.122V720.95C1196.19 716.407 1209.59 707.207 1216.57 693.346C1223.68 679.486 1227.17 654.911 1227.17 619.621L1226.82 441.538L1202.25 420.69C1168.12 391.688 1139.35 373.17 1115.94 365.483V359.309L1176.97 363.386Z" fill="#98CA45"/>
<path d="M2030.58 411.488C2004.72 444.916 1991.79 489.406 1991.79 544.846C1991.79 609.953 2007.75 658.754 2039.9 691.599C2015.56 681.349 1996.22 662.831 1981.89 635.926C1967.57 609.371 1960.35 579.321 1960.35 545.895C1960.35 522.949 1964.08 501.752 1971.65 482.419C1978.63 463.317 1987.02 448.409 1996.8 437.694C2006 427.561 2017.19 418.709 2030.58 411.488ZM2314.53 648.854H2321.41L2310.46 706.624C2289.26 714.777 2268.88 720.833 2249.31 724.677C2229.74 728.521 2210.88 730.5 2192.71 730.5C2137.62 730.5 2094.52 714.428 2063.42 682.399C2032.21 650.485 2016.6 604.246 2016.6 543.449C2016.6 483.001 2033.38 436.645 2066.8 404.616C2100 372.819 2143.91 356.862 2198.53 356.862C2238.13 356.862 2278.08 364.084 2318.61 378.41C2316.75 407.062 2315.93 423.95 2315.93 429.191C2315.93 433.966 2316.05 438.625 2316.28 443.168V451.437C2316.28 463.201 2315.7 474.498 2314.53 485.213H2308.71C2294.62 416.496 2255.25 382.137 2190.61 382.137C2146.93 382.137 2112.23 396.347 2086.25 424.765C2060.28 452.951 2047.35 493.716 2047.35 546.942C2047.35 593.531 2059.35 631.384 2083.22 660.501C2106.87 689.618 2142.51 704.177 2190.38 704.177C2216.7 704.177 2240.81 698.935 2262.7 688.453C2284.25 678.437 2301.61 665.276 2314.53 648.853L2314.53 648.854Z" fill="#98CA45"/>
<path d="M3121.21 459.241L3206.12 619.97L3285.67 453.184C3296.85 430.006 3302.44 412.536 3302.44 401.005C3302.44 382.952 3293.47 371.189 3275.77 365.482V359.309C3275.3 359.309 3281.71 359.891 3294.87 361.056C3312.34 362.57 3326.2 363.386 3336.21 363.386C3344.13 363.386 3361.02 361.987 3386.99 359.309V365.482C3371.97 371.887 3359.86 380.39 3350.54 391.105C3340.99 401.937 3328.53 423.601 3313.27 455.863L3206.12 679.021L3041.66 363.387C3062.39 363.387 3087.08 361.988 3115.74 359.309V365.483C3102.57 369.094 3095.94 377.363 3095.94 390.058C3095.94 403.917 3104.32 426.979 3121.21 459.241ZM3014.06 363.386L3193.54 705.925L3181.54 730.5H3176.18L3023.26 440.14C3000.55 396.58 2976.09 371.655 2949.88 365.483V359.309L3014.06 363.386L3014.06 363.386Z" fill="#98CA45"/>
<path d="M1706.91 598.539C1692.58 616.475 1685.48 636.159 1685.48 657.589C1685.48 682.747 1694.33 703.479 1712.03 719.552C1698.17 716.407 1685.83 709.418 1675.23 698.82C1664.05 688.338 1658.46 674.711 1658.46 657.823C1658.46 628.588 1674.65 608.789 1706.91 598.539ZM1926.34 727.122L1860.77 723.046V545.895C1860.77 527.959 1859.14 514.798 1855.64 506.295C1851.8 497.676 1845.04 490.338 1835.49 484.166C1855.29 488.009 1868.8 495.113 1875.79 505.363C1882.9 515.73 1886.39 534.598 1886.39 561.618V667.024C1886.39 684.96 1888.84 697.889 1893.84 705.575C1898.62 713.379 1909.45 718.503 1926.34 720.949V727.122ZM1813.01 694.627V605.76C1805.56 604.828 1799.15 604.363 1793.91 604.363C1775.98 604.363 1762 609.837 1751.98 620.668C1741.97 631.849 1736.96 644.545 1736.96 658.871C1736.96 671.799 1741.15 682.864 1749.54 691.949C1758.27 701.499 1768.64 706.274 1780.98 706.274C1791.82 706.274 1802.53 702.431 1813.01 694.627ZM1813.01 586.892V550.787C1813.01 534.364 1809.75 521.436 1803.11 512.119C1796.24 503.034 1783.08 498.492 1763.51 498.492C1733.11 498.492 1707.38 510.023 1686.41 532.967L1677.91 524.814C1686.29 510.488 1699.69 498.609 1717.86 489.291C1736.03 480.438 1754.9 476.013 1774.46 476.013C1816.97 476.013 1838.29 499.191 1838.29 545.662V723.046C1827.81 723.512 1819.07 724.91 1811.97 727.122L1813.01 708.954C1801.6 721.067 1788.09 727.122 1772.48 727.122C1754.43 727.122 1739.4 720.018 1727.41 705.925C1715.06 691.832 1709.01 675.992 1709.01 658.172C1709.01 637.79 1716.46 620.32 1731.48 605.761C1746.04 591.202 1765.49 583.864 1789.84 583.864C1797.52 583.864 1805.33 584.913 1813.01 586.892Z" fill="#2373C8"/>
<path d="M2419.01 496.744C2397.81 520.27 2387.21 554.862 2387.21 600.519C2387.21 646.291 2397.81 681.349 2419.01 705.691C2379.64 683.328 2359.96 647.922 2359.96 599.237C2359.96 551.134 2379.64 517.01 2419.01 496.744ZM2606.76 701.964C2627.61 678.438 2638.09 645.942 2638.09 604.362C2638.09 581.767 2635.64 560.569 2630.64 540.769C2625.39 520.62 2617.36 505.829 2606.76 496.511C2646.48 518.523 2666.39 552.416 2666.39 598.189C2666.39 642.099 2646.48 676.691 2606.76 701.964ZM2439.16 598.538C2439.16 640.119 2445.56 668.42 2458.26 683.212C2471.07 698.004 2489.12 705.341 2512.54 705.341C2534.66 705.341 2552.48 697.655 2566.11 682.163C2579.5 666.673 2586.26 638.487 2586.26 597.49C2586.26 528.54 2561.69 494.064 2512.54 494.064C2463.62 494.064 2439.16 528.89 2439.16 598.538ZM2410.51 604.012C2410.51 559.87 2419.47 527.026 2437.41 505.362C2455.7 483.582 2480.62 472.634 2512.54 472.634C2542.12 472.634 2566.58 482.301 2585.91 501.636C2605.24 520.969 2614.91 552.882 2614.91 597.49C2614.91 646.408 2604.55 680.534 2583.81 699.867C2562.97 719.435 2538.86 729.218 2511.49 729.218C2483.53 729.218 2459.77 718.969 2440.21 698.47C2420.41 678.32 2410.51 646.756 2410.51 604.012Z" fill="#2373C8"/>
<path d="M2717.29 632.316H2722.41C2729.17 653.513 2740.47 671.1 2756.19 685.193C2772.03 699.286 2789.15 706.391 2807.32 706.391C2821.76 706.391 2834.11 702.78 2844.59 695.442C2854.61 688.221 2859.62 679.603 2859.62 669.82C2859.62 659.453 2854.49 650.95 2844.24 644.661C2833.76 638.256 2814.66 632.199 2786.82 626.492C2759.57 620.552 2739.19 611.934 2725.79 600.403C2712.4 588.873 2705.64 574.546 2705.64 557.192C2705.64 543.798 2710.07 531.219 2718.92 519.339C2717.99 525.046 2717.64 530.288 2717.64 535.063C2717.64 546.477 2721.02 557.076 2727.77 567.092C2734.18 576.642 2743.15 583.98 2754.79 588.988C2766.21 593.996 2785.31 599.82 2812.1 606.342C2837.6 612.516 2856.24 620.086 2867.77 628.938C2879.18 637.789 2884.89 650.602 2884.89 667.489C2884.89 685.193 2877.67 699.752 2863.34 711.166C2849.25 722.231 2828.64 727.821 2801.61 727.821C2777.62 727.821 2750.14 721.997 2718.92 710.467C2718.92 693.229 2718.45 680.884 2717.64 673.663C2716.94 666.791 2716.59 659.57 2716.59 651.766C2716.59 647.457 2716.82 640.934 2717.29 632.316ZM2912.15 558.241H2907.37C2899.45 537.276 2886.75 521.552 2869.17 510.837C2851.93 500.355 2834.34 495.113 2816.64 495.113C2802.66 495.113 2790.43 497.792 2779.72 503.266C2769.24 508.973 2763.99 517.126 2763.99 527.492C2763.99 535.528 2767.84 541.702 2775.64 546.012C2782.86 550.088 2797.19 554.397 2818.62 558.939C2862.76 568.257 2891.41 580.253 2904.34 594.812C2917.27 609.371 2923.79 624.745 2923.79 640.818C2923.79 654.795 2917.39 670.285 2904.69 687.639C2906.55 679.253 2907.37 672.032 2907.37 666.092C2907.37 648.621 2901.55 632.549 2889.67 617.989C2878.02 603.663 2850.88 591.434 2808.02 581.417C2782.75 575.595 2765.28 568.956 2755.49 561.617C2745.48 554.163 2740.47 543.099 2740.47 528.541C2740.47 512.118 2747.81 498.956 2762.6 488.941C2777.16 479.158 2798.7 474.265 2827.12 474.265C2854.26 474.265 2881.98 479.856 2910.51 491.037C2910.05 496.511 2909.82 499.54 2909.82 500.238C2909.82 508.624 2910.28 517.476 2911.21 526.91C2911.8 535.063 2912.15 545.545 2912.15 558.241Z" fill="#2373C8"/>
<path d="M3467.13 643.846V479.74H3492.75V648.971C3492.75 690.318 3507.2 711.05 3536.08 711.05C3545.4 711.05 3553.08 709.186 3558.91 705.575V713.146C3547.38 722.697 3534.57 727.472 3520.71 727.472C3508.01 727.472 3497.3 723.629 3488.68 715.825C3479.36 707.906 3473.54 699.17 3471.21 689.619C3468.53 680.068 3467.13 664.811 3467.13 643.846ZM3419.03 638.023V479.74H3444.65V650.02C3444.65 675.061 3447.1 692.881 3452.11 703.596C3456.88 714.778 3464.92 722.697 3475.98 727.472H3465.5C3450.24 720.601 3438.59 711.05 3430.67 698.821C3422.87 686.708 3419.03 666.557 3419.03 638.023ZM3432.31 366.18L3480.52 410.905L3464.1 427.909L3416.35 383.534L3432.31 366.18ZM3464.1 332.055L3511.86 376.779L3495.78 393.784L3447.68 349.408L3464.1 332.055Z" fill="#2373C8"/>
<path d="M1179.2 183.4C1178.13 178.467 1176.27 174.8 1173.6 172.4C1170.93 169.867 1167.13 168.6 1162.2 168.6C1154.6 168.6 1149.13 171.933 1145.8 178.6C1142.47 185.133 1140.73 195.533 1140.6 209.8C1143.53 205.133 1147.73 201.467 1153.2 198.8C1158.8 196.133 1164.93 194.8 1171.6 194.8C1184.67 194.8 1195.13 198.933 1203 207.2C1211 215.467 1215 227 1215 241.8C1215 251.533 1213 260.067 1209 267.4C1205.13 274.733 1199.4 280.467 1191.8 284.6C1184.33 288.733 1175.47 290.8 1165.2 290.8C1144.67 290.8 1130.4 284.4 1122.4 271.6C1114.4 258.667 1110.4 240.133 1110.4 216C1110.4 190.667 1114.6 171.867 1123 159.6C1131.53 147.2 1145.13 141 1163.8 141C1173.8 141 1182.2 143 1189 147C1195.93 150.867 1201.13 156 1204.6 162.4C1208.2 168.8 1210.33 175.8 1211 183.4H1179.2ZM1163.4 221.8C1157.67 221.8 1152.87 223.533 1149 227C1145.27 230.333 1143.4 235.133 1143.4 241.4C1143.4 247.8 1145.13 252.8 1148.6 256.4C1152.2 260 1157.27 261.8 1163.8 261.8C1169.67 261.8 1174.27 260.067 1177.6 256.6C1181.07 253 1182.8 248.133 1182.8 242C1182.8 235.733 1181.13 230.8 1177.8 227.2C1174.47 223.6 1169.67 221.8 1163.4 221.8ZM1299.94 261V290H1282.54C1270.14 290 1260.48 287 1253.54 281C1246.61 274.867 1243.14 264.933 1243.14 251.2V206.8H1229.54V178.4H1243.14V151.2H1277.34V178.4H1299.74V206.8H1277.34V251.6C1277.34 254.933 1278.14 257.333 1279.74 258.8C1281.34 260.267 1284.01 261 1287.74 261H1299.94ZM1387.59 177.2C1400.39 177.2 1410.66 181.467 1418.39 190C1426.13 198.4 1429.99 210 1429.99 224.8V290H1395.99V229.4C1395.99 221.933 1394.06 216.133 1390.19 212C1386.33 207.867 1381.13 205.8 1374.59 205.8C1368.06 205.8 1362.86 207.867 1358.99 212C1355.13 216.133 1353.19 221.933 1353.19 229.4V290H1318.99V142H1353.19V193.4C1356.66 188.467 1361.39 184.533 1367.39 181.6C1373.39 178.667 1380.13 177.2 1387.59 177.2Z" fill="#FFD243"/>
</svg>
